<svg width="20" height="18" viewBox="0 0 20 18" fill="none" xmlns="http://www.w3.org/2000/svg">
<path d="M18.7306 3.87011H14.0506V2.60989C14.0506 1.58995 13.2106 0.75 12.1303 0.75H7.63034C6.55056 0.75 5.71013 1.58998 5.71013 2.60989V3.87011H1.03013C0.609924 3.87011 0.25 4.23004 0.25 4.65023V16.4102C0.25 16.8304 0.609935 17.1904 1.03013 17.1904H18.7301C19.1503 17.1904 19.5103 16.8304 19.5103 16.4102L19.5107 4.65023C19.4508 4.23045 19.0905 3.87011 18.7305 3.87011H18.7306ZM7.21056 2.67021C7.21056 2.49025 7.39052 2.31028 7.63076 2.31028H12.1308C12.3706 2.31028 12.551 2.49025 12.551 2.67021V3.93043H7.21096L7.21056 2.67021ZM17.9506 15.6302H1.75056L1.75014 5.37H17.9501L17.9506 15.6302Z" fill="#858585"/>
<path d="M7.69077 11.2501H9.13088V12.5701C9.13088 12.9903 9.49081 13.3502 9.91101 13.3502C10.3312 13.3502 10.6911 12.9903 10.6911 12.5701V11.2501H12.1312C12.5514 11.2501 12.9114 10.8902 12.9114 10.47C12.9114 10.0498 12.5514 9.68985 12.1312 9.68985H10.6911V8.36985C10.6911 7.94965 10.3312 7.58972 9.91101 7.58972C9.49081 7.58972 9.13088 7.94966 9.13088 8.36985V9.68985H7.69077C7.27057 9.68985 6.91064 10.0498 6.91064 10.47C6.91064 10.8902 7.271 11.2501 7.69077 11.2501Z" fill="#858585"/>
</svg>
