<svg width="13" height="20" viewBox="0 0 13 20" fill="none" xmlns="http://www.w3.org/2000/svg">
<path d="M7.79988 6.19001C7.79988 7.11788 7.02101 7.87 6.0601 7.87C5.09919 7.87 4.32031 7.11792 4.32031 6.19001C4.32031 5.2621 5.09919 4.51001 6.0601 4.51001C7.02101 4.51001 7.79988 5.2621 7.79988 6.19001Z" fill="#858585"/>
<path d="M6.05989 0.25C2.75979 0.25 0 3.01021 0 6.43C0 9.5501 4.85989 18.13 5.39978 19.09C5.5199 19.3298 5.75972 19.4499 6.05981 19.4499C6.35989 19.4499 6.59971 19.3298 6.71983 19.09C7.25973 18.1299 12.1196 9.48978 12.1196 6.43C12.1196 3.01021 9.35983 0.25 6.05972 0.25H6.05989ZM6.05989 17.17C4.37989 14.0499 1.5 8.40978 1.5 6.43C1.5 3.85021 3.53989 1.75 6.05989 1.75C8.57989 1.75 10.6198 3.85021 10.6198 6.43C10.6198 8.40968 7.73989 14.0497 6.05989 17.17Z" fill="#858585"/>
</svg>
