<svg width="20" height="15" viewBox="0 0 20 15" fill="none" xmlns="http://www.w3.org/2000/svg">
<path d="M19.0097 4.58214L10.1603 0.567174C9.96364 0.477609 9.73722 0.477609 9.54051 0.567174L0.69029 4.58C0.422433 4.70137 0.25 4.96881 0.25 5.26303C0.25 5.55684 0.422018 5.8247 0.689875 5.94565L4.41641 7.6369V10.7181V10.7206V14.2254C4.41641 14.6393 4.75248 14.9754 5.16641 14.9754C5.58033 14.9754 5.91641 14.6393 5.91641 14.2254V12.2918C7.07784 13.0363 8.42923 13.4414 9.85059 13.4414C11.8365 13.4414 13.6902 12.6642 15.0713 11.2533C15.2086 11.1136 15.2848 10.9252 15.2848 10.7289V7.6385L19.0097 5.94929C19.278 5.82624 19.4504 5.55922 19.4504 5.26458C19.4504 4.97077 19.278 4.70375 19.0097 4.58196L19.0097 4.58214ZM13.7843 10.4109C12.7138 11.3991 11.3284 11.9402 9.8506 11.9402C8.37031 11.9402 6.98742 11.3919 5.91556 10.4013V8.31746L9.53913 9.96103C9.63749 10.0054 9.7438 10.0276 9.84926 10.0276C9.95473 10.0276 10.061 10.0054 10.1594 9.96103L13.7847 8.31703L13.7843 10.4109ZM9.85017 8.45428L6.96063 7.1435L10.1678 5.64521C10.5428 5.46985 10.7056 5.0237 10.5303 4.6487C10.3545 4.2737 9.90794 4.11006 9.53294 4.28625L5.16312 6.32743L2.81648 5.26312L9.85148 2.07348L16.8852 5.2643L9.85017 8.45428Z" fill="#858585"/>
</svg>
